<svg width="619" height="591" viewBox="0 0 619 591" fill="none" xmlns="http://www.w3.org/2000/svg">
<g id="create 2" clip-path="url(#clip0_21_2)">
<g id="Layer 2">
<g id="Plant">
<g id="flower5">
<path id="Vector" d="M143.718 425.633C143.846 425.833 141.243 427.606 137.209 430.68C131.959 434.654 126.961 438.951 122.247 443.547C117.551 448.176 113.156 453.099 109.086 458.286C105.939 462.261 104.123 464.82 103.922 464.691C103.722 464.563 105.281 461.832 108.214 457.643C115.971 446.773 125.571 437.343 136.58 429.779C140.814 426.934 143.632 425.476 143.718 425.633Z" fill="#263238"/>
<path id="Vector_2" d="M138.396 403.803C138.797 403.888 137.409 410.951 135.292 419.529C133.175 428.107 131.144 435.026 130.743 434.912C130.343 434.797 131.73 427.763 133.833 419.186C135.936 410.608 137.982 403.703 138.396 403.803Z" fill="#263238"/>
<path id="Vector_3" d="M136.079 402.602C135.02 403.073 134.72 405.647 135.592 406.891C136.08 407.473 136.76 407.864 137.509 407.992C138.259 408.121 139.029 407.978 139.684 407.591C140.458 407.149 141.032 406.424 141.285 405.569C141.538 404.714 141.451 403.795 141.042 403.002C140.746 402.622 140.372 402.309 139.945 402.084C139.518 401.859 139.049 401.727 138.567 401.698C138.086 401.668 137.603 401.741 137.152 401.911C136.701 402.082 136.291 402.347 135.95 402.687" fill="#455A64"/>
<path id="Vector_4" d="M147.165 412.538C147.337 412.909 144.805 414.439 141.443 415.94C138.082 417.441 135.335 418.356 135.164 417.985C134.992 417.613 137.524 416.069 140.885 414.568C144.247 413.067 146.993 412.152 147.165 412.538Z" fill="#263238"/>
<path id="Vector_5" d="M146.907 410.064C145.986 410.678 145.285 411.57 144.905 412.609C144.737 413.137 144.767 413.707 144.988 414.214C145.209 414.721 145.606 415.132 146.106 415.368C146.448 415.468 146.81 415.479 147.157 415.402C147.505 415.324 147.827 415.16 148.095 414.925C148.636 414.457 149.037 413.849 149.253 413.167C149.562 412.457 149.602 411.66 149.368 410.922C149.238 410.561 148.979 410.261 148.641 410.079C148.303 409.897 147.91 409.846 147.537 409.936" fill="#455A64"/>
<path id="Vector_6" d="M146.85 422.774C146.27 422.779 145.705 422.959 145.23 423.292C144.755 423.625 144.393 424.094 144.191 424.638C143.989 425.182 143.957 425.774 144.099 426.336C144.242 426.898 144.552 427.403 144.989 427.785C145.425 428.167 145.968 428.407 146.544 428.474C147.12 428.54 147.703 428.43 148.216 428.158C148.728 427.886 149.145 427.464 149.412 426.95C149.679 426.435 149.784 425.851 149.711 425.276C149.564 424.49 149.119 423.793 148.468 423.329C147.817 422.865 147.012 422.671 146.221 422.788" fill="#455A64"/>
</g>
<g id="flower2">
<path id="Vector_7" d="M79.3758 336.995C79.6449 338.683 79.7693 340.39 79.7477 342.099C79.8621 345.645 80.0195 350.348 80.2054 356.038C80.5201 367.804 80.8491 384.045 81.1209 401.987C81.3927 419.929 81.5644 436.184 81.6073 447.95C81.6073 453.668 81.6073 458.343 81.6073 461.875C81.6625 463.584 81.5907 465.294 81.3927 466.993C81.1418 465.303 81.0175 463.597 81.0208 461.889C80.9064 458.358 80.749 453.654 80.5631 447.964C80.2484 436.198 79.9194 419.943 79.6476 401.987C79.3758 384.031 79.2041 367.79 79.1612 356.024C79.1612 350.305 79.1612 345.645 79.1612 342.099C79.1057 340.395 79.1775 338.689 79.3758 336.995V336.995Z" fill="#263238"/>
<path id="Vector_8" d="M102.277 327.188C102.631 331.659 101.651 336.134 99.4598 340.047C97.2688 343.961 93.9658 347.137 89.9685 349.175C85.9712 351.212 81.4591 352.019 77.0029 351.494C72.5467 350.969 68.3464 349.134 64.9333 346.223C61.5202 343.312 59.0476 339.454 57.8281 335.138C56.6086 330.823 56.697 326.242 58.0821 321.977C59.4673 317.711 62.087 313.952 65.6099 311.174C69.1328 308.397 73.4007 306.726 77.8739 306.372C80.8442 306.136 83.8319 306.487 86.6664 307.405C89.5008 308.324 92.1263 309.792 94.3928 311.725C96.6592 313.658 98.5222 316.019 99.8751 318.672C101.228 321.325 102.044 324.219 102.277 327.188V327.188Z" fill="#FD4F5C"/>
</g>
<g id="flower4">
<path id="Vector_9" d="M31.0552 406.59C31.4558 406.462 37.6925 424.833 45.0022 447.593C52.3118 470.352 57.8762 488.938 57.49 489.052C57.1038 489.167 50.8527 470.824 43.5574 448.036C36.2621 425.247 30.669 406.719 31.0552 406.59Z" fill="#263238"/>
<path id="Vector_10" d="M45.5743 451.896C45.3311 452.167 38.9513 447.135 30.9837 441.016C23.0161 434.897 16.7793 429.579 17.0654 429.25C17.3515 428.921 23.9458 433.668 31.9135 439.815C39.8811 445.963 45.889 451.553 45.5743 451.896Z" fill="#263238"/>
<path id="Vector_11" d="M13.5177 427.363C12.2875 428.493 12.7453 430.994 14.1185 432.381C15.4917 433.768 18.7389 433.096 19.8403 431.438C20.3104 430.577 20.4239 429.566 20.1565 428.622C19.889 427.679 19.2619 426.878 18.4099 426.391C17.5205 425.972 16.51 425.885 15.5623 426.148C14.6146 426.41 13.7927 427.004 13.2459 427.821" fill="#455A64"/>
<path id="Vector_12" d="M45.5882 397.641C46.046 397.727 44.6727 404.275 41.9692 411.937C39.2656 419.6 37.6063 425.891 37.2344 425.833C36.8624 425.776 37.8352 419.157 40.5387 411.451C43.2423 403.746 45.2163 397.57 45.5882 397.641Z" fill="#263238"/>
<path id="Vector_13" d="M44.8733 391.979C43.357 393.066 43.2998 393.709 42.7133 395.468C42.1268 397.226 42.9708 399.571 44.7875 399.943C46.6041 400.314 48.0632 398.842 48.7784 397.255C49.159 396.558 49.3585 395.776 49.3585 394.982C49.3585 394.187 49.159 393.406 48.7784 392.709C48.567 392.381 48.2855 392.105 47.9542 391.9C47.6229 391.694 47.2501 391.565 46.8628 391.521C46.4754 391.478 46.0832 391.52 45.7144 391.647C45.3456 391.773 45.0094 391.979 44.7302 392.251" fill="#455A64"/>
<path id="Vector_14" d="M18.8818 446.249C18.7245 445.863 21.4137 444.362 24.8611 442.918C28.3085 441.474 31.2695 440.587 31.4412 440.959C31.6128 441.331 28.9379 442.832 25.4476 444.304C21.9573 445.777 19.0249 446.635 18.8818 446.249Z" fill="#263238"/>
<path id="Vector_15" d="M13.4605 443.718C12.4163 444.262 12.03 446.763 12.03 447.821C12.0789 448.347 12.249 448.854 12.5269 449.303C12.8049 449.752 13.1832 450.131 13.6321 450.409C14.252 450.805 14.9681 451.025 15.7035 451.045C16.439 451.065 17.1659 450.884 17.8063 450.522C18.4467 450.16 18.9762 449.63 19.338 448.99C19.6998 448.35 19.8802 447.623 19.8598 446.888C19.8393 446.153 19.6189 445.438 19.2221 444.818C18.8253 444.199 18.2671 443.7 17.6076 443.374C16.9482 443.048 16.2123 442.908 15.479 442.968C14.7458 443.029 14.043 443.288 13.4462 443.718" fill="#455A64"/>
<path id="Vector_16" d="M24.3177 402.344C24.0605 403.513 24.1985 404.733 24.7102 405.815C25.2219 406.897 26.0782 407.778 27.145 408.321C28.2118 408.864 29.4286 409.038 30.6048 408.815C31.781 408.592 32.85 407.986 33.6442 407.091C34.0242 406.68 34.3135 406.194 34.4934 405.665C34.6733 405.135 34.7397 404.574 34.6885 404.017C34.3762 402.889 33.7534 401.872 32.891 401.081C32.0287 400.29 30.9614 399.757 29.8106 399.542C28.7148 399.423 27.6083 399.631 26.6307 400.14C25.6531 400.649 24.8482 401.436 24.3177 402.401" fill="#455A64"/>
</g>
<g id="flower3">
<path id="Vector_17" d="M102.092 424.918C102.292 425.004 101.548 427.263 100.303 430.923C98.873 435.126 97.1422 439.887 95.2969 445.134L90.1186 459.301C88.774 462.918 87.9157 465.149 87.7155 465.091C87.2863 464.963 89.8325 455.727 93.8235 444.633C97.8145 433.539 101.677 424.747 102.092 424.918Z" fill="#263238"/>
<path id="Vector_18" d="M126.18 414.511C125.381 418.263 123.486 421.695 120.735 424.371C117.984 427.047 114.501 428.848 110.726 429.546C106.951 430.244 103.054 429.808 99.5275 428.292C96.0007 426.777 93.0028 424.25 90.9128 421.032C88.8227 417.813 87.7344 414.048 87.7854 410.212C87.8364 406.375 89.0245 402.64 91.1993 399.479C93.3742 396.317 96.4382 393.871 100.004 392.45C103.57 391.028 107.477 390.695 111.232 391.493C113.726 392.023 116.091 393.039 118.192 394.483C120.293 395.927 122.089 397.77 123.477 399.907C124.865 402.045 125.818 404.435 126.282 406.94C126.746 409.446 126.711 412.018 126.18 414.511V414.511Z" fill="#FD4F5C"/>
</g>
<g id="flower1">
<path id="Vector_19" d="M57.3896 384.216C57.7684 385.26 58.0229 386.344 58.1478 387.447C58.5483 389.849 59.049 392.809 59.5782 396.283C60.7655 403.76 62.3104 414.096 63.8696 425.505C65.4288 436.913 66.8592 447.292 67.7747 454.798C68.1753 458.301 68.5186 461.274 68.7904 463.69C68.9803 464.78 69.0379 465.889 68.962 466.993C68.5816 465.955 68.3271 464.875 68.2039 463.776C67.8033 461.374 67.3265 458.429 66.7734 454.941C65.5861 447.464 64.0412 437.128 62.4821 425.69C60.9229 414.253 59.4924 403.903 58.6484 396.397C58.2479 392.899 57.9094 389.93 57.6328 387.49C57.4189 386.413 57.3372 385.314 57.3896 384.216V384.216Z" fill="#263238"/>
<path id="Vector_20" d="M75.2964 365.865C76.3308 369.559 76.2459 373.478 75.0523 377.124C73.8587 380.771 71.6101 383.982 68.5907 386.351C65.5714 388.72 61.9169 390.142 58.0893 390.436C54.2617 390.729 50.433 389.882 47.0871 388.001C43.7412 386.12 41.0284 383.29 39.2918 379.869C37.5551 376.447 36.8726 372.588 37.3305 368.778C37.7884 364.969 39.3661 361.381 41.8642 358.468C44.3622 355.555 47.6685 353.447 51.3649 352.412C53.8201 351.724 56.3868 351.527 58.9184 351.831C61.45 352.134 63.8969 352.934 66.1193 354.183C68.3416 355.433 70.296 357.107 71.8706 359.112C73.4452 361.116 74.6094 363.411 75.2964 365.865Z" fill="#FD4F5C"/>
</g>
<g id="pot">
<path id="Vector_21" d="M60.1649 590.628L42.5417 463.547H118.399L102.907 590.628H60.1649Z" fill="#263238"/>
<path id="Vector_22" d="M112.92 513.242C112.92 513.599 98.7011 513.885 81.178 513.885C63.655 513.885 49.4363 513.599 49.4363 513.242C49.4363 512.884 63.6407 512.613 81.178 512.613C98.7154 512.613 112.92 512.899 112.92 513.242Z" fill="#FAFAFA"/>
<path id="Vector_23" d="M111.346 521.419C111.346 521.777 97.7428 522.063 80.9492 522.063C64.1557 522.063 50.5664 521.777 50.5664 521.419C50.5664 521.062 64.17 520.79 80.9492 520.79C97.7284 520.79 111.346 521.076 111.346 521.419Z" fill="#FAFAFA"/>
<path id="Vector_24" d="M110.388 529.239C110.388 529.597 97.2421 529.868 81.0208 529.868C64.7994 529.868 51.6536 529.597 51.6536 529.239C51.6536 528.882 64.7994 528.596 81.0208 528.596C97.2421 528.596 110.388 528.882 110.388 529.239Z" fill="#FAFAFA"/>
<path id="Vector_25" d="M109.358 537.732C109.358 538.089 96.6987 538.361 81.0924 538.361C65.4862 538.361 52.8267 538.089 52.8267 537.732C52.8267 537.374 65.4862 537.088 81.0924 537.088C96.6987 537.088 109.358 537.374 109.358 537.732Z" fill="#FAFAFA"/>
<path id="Vector_26" d="M108.414 545.494C108.414 545.838 96.3408 546.123 81.4355 546.123C66.5302 546.123 54.4714 545.838 54.4714 545.494C54.4714 545.151 66.5445 544.851 81.4355 544.851C96.3265 544.851 108.414 545.137 108.414 545.494Z" fill="#FAFAFA"/>
<path id="Vector_27" d="M106.898 553.272C106.898 553.615 95.2824 553.901 80.935 553.901C66.5876 553.901 54.9866 553.615 54.9866 553.272C54.9866 552.929 66.6019 552.628 80.935 552.628C95.2681 552.628 106.898 552.9 106.898 553.272Z" fill="#FAFAFA"/>
<path id="Vector_28" d="M106.512 561.02C106.512 561.364 95.2254 561.649 81.2928 561.649C67.3602 561.649 56.0596 561.364 56.0596 561.02C56.0596 560.677 67.3602 560.377 81.2928 560.377C95.2254 560.377 106.512 560.663 106.512 561.02Z" fill="#FAFAFA"/>
<path id="Vector_29" d="M105.567 568.769C105.567 569.126 94.7246 569.412 81.3499 569.412C67.9752 569.412 57.1323 569.126 57.1323 568.769C57.1323 568.412 67.9752 568.14 81.3499 568.14C94.7246 568.14 105.567 568.426 105.567 568.769Z" fill="#FAFAFA"/>
</g>
</g>
<g id="Character">
<path id="Vector_30" d="M277.179 37.4566C274.919 41.1451 269.512 41.8885 265.578 40.0729C261.644 38.2572 258.926 34.5402 256.795 30.7659C254.664 26.9916 252.876 22.9458 249.986 19.7005C247.522 16.9562 244.352 14.9391 240.822 13.8679C237.291 12.7968 233.535 12.7126 229.96 13.6245C226.42 14.6519 223.269 16.7153 220.913 19.5488C218.557 22.3822 217.105 25.8559 216.742 29.5221C216.127 38.343 222.621 46.5063 230.603 50.3234C238.585 54.1406 247.769 54.4551 256.623 54.0977" fill="#263238"/>
<path id="hair-right" d="M389.627 45.7799C398.21 41.6768 409.153 46.6948 414.059 54.8724C418.966 63.0499 418.951 73.3005 417.063 82.636C415.261 91.4712 412.357 102.008 418.651 108.47C423.6 113.531 432.626 113.831 436.131 119.978C441.152 128.799 429.866 139.136 431.425 149.172C432.397 155.505 438.277 159.923 444.156 162.496C450.035 165.069 456.515 166.599 461.564 170.573C466.614 174.548 469.632 182.211 465.856 187.443L432.955 197.779L426.275 186.214C428.578 191.103 427.534 197.065 424.845 201.697C422.155 206.329 417.821 209.874 413.401 213.062C396.379 225.486 375.751 234.121 354.752 232.949" fill="#263238"/>
<path id="Vector_31" d="M241.503 60.7169C241.246 51.9389 249.371 45.1624 257.539 41.9457C265.707 38.729 274.79 37.5281 282.071 32.6245C288.522 28.3355 292.857 21.5161 298.321 15.9834C305.058 9.16024 313.491 4.25148 322.753 1.76091C332.015 -0.72967 341.773 -0.712374 351.027 1.81102C360.28 4.33441 368.695 9.27303 375.408 16.1201C382.121 22.9671 386.89 31.4759 389.226 40.7734C392.359 53.2685 390.213 68.0367 380.372 76.3429C368.928 85.9787 351.977 83.8343 337.315 80.832C322.653 77.8298 306.117 74.8847 293.844 83.4912C286.477 88.6665 282.243 97.1014 277.737 104.936C273.231 112.77 267.566 120.662 259.026 123.65C250.487 126.638 238.886 121.52 238.585 112.484" fill="#263238"/>
<path id="Vector_32" d="M242.09 65.5348C243.063 72.8832 237.799 79.4595 232.434 84.6634C227.07 89.8673 221.148 95.3572 220.29 102.706C219.188 111.283 225.468 119.761 223.651 128.239C222.493 133.614 218.301 137.746 215.77 142.635C212.388 149.671 211.83 157.733 214.21 165.167C216.399 172.572 219.932 189.113 225.025 194.875C239.329 210.786 261.945 224.511 282.758 229.3C303.571 234.09 325.213 234.104 346.527 232.789C363.993 231.716 384.062 232.517 398.61 208.485C406.134 196.047 409.868 179.52 413.873 165.595C417.32 153.558 420.31 140.677 416.734 128.696C414.645 121.705 410.44 115.501 408.38 108.496C405.805 99.7605 406.749 90.4249 405.719 81.3324C404.594 71.4903 401.134 62.0589 395.628 53.8218C390.122 45.5848 382.729 38.78 374.062 33.9731C365.396 29.1662 355.706 26.496 345.8 26.1843C335.893 25.8727 326.055 27.9286 317.103 32.1813" fill="#263238"/>
<path id="Vector_33" d="M397.28 95.6717C395.635 70.6386 378.97 39.9156 354.023 42.6605L276.077 62.5183C272.42 62.9112 269.043 64.6611 266.615 67.422C264.186 70.1829 262.882 73.754 262.96 77.4294L268.024 248.486C268.376 260.393 273.422 271.679 282.063 279.884C290.704 288.089 302.24 292.548 314.156 292.29V292.29C325.95 292.033 337.175 287.174 345.433 278.754C353.69 270.333 358.323 259.018 358.343 247.228C358.343 235.033 358.343 220.68 358.343 220.737C358.343 220.794 390.328 215.347 396.865 173.559C400.212 152.843 399.096 123.493 397.28 95.6717Z" fill="#FFBE9D"/>
<path id="eyeright" d="M383.361 127.967C383.377 129.361 382.848 130.706 381.886 131.716C380.924 132.725 379.606 133.319 378.212 133.371C377.531 133.428 376.846 133.348 376.196 133.135C375.547 132.923 374.947 132.583 374.431 132.136C373.915 131.688 373.494 131.142 373.193 130.529C372.891 129.916 372.716 129.249 372.676 128.568C372.66 127.172 373.189 125.826 374.15 124.814C375.112 123.802 376.43 123.205 377.826 123.149C378.507 123.093 379.194 123.174 379.844 123.387C380.494 123.6 381.095 123.941 381.611 124.39C382.127 124.839 382.548 125.387 382.849 126.002C383.149 126.616 383.324 127.284 383.361 127.967Z" fill="#263238"/>
<path id="eyelash-right" d="M389.927 113.399C389.269 114.1 385.207 111.098 379.442 111.126C373.677 111.155 369.429 113.985 368.828 113.342C368.528 113.028 369.2 111.769 371.031 110.483C373.525 108.753 376.492 107.834 379.528 107.852C382.525 107.838 385.45 108.774 387.882 110.526C389.656 111.827 390.256 113.085 389.927 113.399Z" fill="#263238"/>
<path id="eyeleft" d="M328.089 127.967C328.104 129.364 327.573 130.711 326.608 131.721C325.643 132.73 324.321 133.323 322.925 133.371C322.245 133.428 321.56 133.347 320.912 133.135C320.263 132.923 319.664 132.583 319.149 132.135C318.634 131.687 318.215 131.141 317.915 130.528C317.615 129.915 317.441 129.249 317.403 128.568C317.387 127.172 317.916 125.826 318.878 124.814C319.839 123.802 321.158 123.205 322.553 123.149C323.235 123.093 323.921 123.174 324.571 123.387C325.222 123.6 325.822 123.941 326.338 124.39C326.855 124.839 327.275 125.387 327.576 126.002C327.876 126.616 328.051 127.284 328.089 127.967V127.967Z" fill="#263238"/>
<path id="eyelash-left" d="M333.296 114.6C332.638 115.301 328.561 112.298 322.81 112.327C317.06 112.356 312.797 115.186 312.196 114.543C311.896 114.228 312.554 112.97 314.399 111.684C316.893 109.954 319.861 109.035 322.896 109.053C325.894 109.039 328.818 109.975 331.25 111.727C332.995 113.028 333.61 114.286 333.296 114.6Z" fill="#263238"/>
<path id="Vector_34" d="M354.295 157.261C354.295 156.932 357.842 156.317 363.65 155.559C365.08 155.402 366.511 155.102 366.754 154.13C366.997 153.158 366.482 151.485 365.767 149.769L361.39 138.59C355.31 122.649 350.905 109.554 351.548 109.31C352.192 109.067 357.642 121.791 363.721 137.717L367.913 148.983C368.485 150.656 369.443 152.543 368.699 154.702C368.486 155.221 368.157 155.684 367.738 156.058C367.32 156.432 366.822 156.706 366.282 156.86C365.467 157.091 364.625 157.211 363.779 157.218C357.942 157.561 354.309 157.59 354.295 157.261Z" fill="#263238"/>
<path id="Vector_35" d="M303.042 205.869C303.042 205.869 316.631 234.533 358.414 230.544V220.737C338.936 220.998 319.766 215.851 303.042 205.869Z" fill="#EB996E"/>
<g id="mouth">
<path id="Vector_36" d="M351.892 171.157C350.791 169.778 349.357 168.702 347.726 168.03C346.094 167.357 344.318 167.11 342.565 167.311C341.294 167.43 340.06 167.805 338.937 168.411C337.814 169.018 336.824 169.845 336.028 170.842C335.258 171.802 334.802 172.976 334.723 174.204C334.644 175.431 334.944 176.654 335.585 177.705C337.144 179.892 340.405 180.392 343.152 179.606C345.872 178.637 348.372 177.135 350.504 175.188C351.153 174.728 351.711 174.151 352.149 173.487C352.36 173.169 352.472 172.796 352.472 172.415C352.472 172.034 352.36 171.661 352.149 171.343" fill="#E8505B"/>
<path id="Vector_37" d="M337.344 161.292C338.274 161.292 338.302 167.483 343.666 171.9C349.031 176.318 355.697 175.632 355.74 176.504C355.825 176.89 354.309 177.719 351.448 177.805C347.78 177.866 344.209 176.631 341.363 174.316C338.638 172.092 336.88 168.9 336.457 165.41C336.157 162.808 336.915 161.249 337.344 161.292Z" fill="#263238"/>
</g>
<path id="Vector_38" d="M334.726 97.7304C334.168 99.303 328.403 98.5739 321.652 99.403C314.9 100.232 309.421 102.076 308.52 100.675C308.12 100.003 309.078 98.531 311.267 97.0155C314.212 95.1389 317.548 93.9609 321.019 93.5719C324.491 93.1828 328.005 93.593 331.293 94.771C333.667 95.7861 334.912 96.987 334.726 97.7304Z" fill="#263238"/>
<path id="Vector_39" d="M387.767 96.7297C386.766 98.0449 382.789 96.7297 378.012 96.6439C373.234 96.5581 369.2 97.5446 368.27 96.1721C367.855 95.5145 368.485 94.1992 370.259 92.9554C372.63 91.4599 375.393 90.7046 378.196 90.7861C380.999 90.8676 383.713 91.7821 385.994 93.4129C387.653 94.7425 388.225 96.0863 387.767 96.7297Z" fill="#263238"/>
<path id="Vector_40" d="M246.953 199.821C252.722 200.984 258.684 200.758 264.348 199.162C270.012 197.565 275.214 194.645 279.524 190.641C283.835 186.637 287.13 181.666 289.137 176.137C291.145 170.609 291.807 164.682 291.069 158.848C289.767 148.597 284.245 138.161 287.793 128.468C292.499 115.601 310.494 111.684 315.272 98.8884C318.033 91.4543 315.544 82.7477 318.691 75.4566C321.652 68.5943 328.875 64.6485 335.856 62.118C342.837 59.5875 350.404 57.8291 356.297 53.2399C362.191 48.6508 365.881 40.0157 362.019 33.5823C330.864 37.338 300.267 44.7815 270.871 55.7561C264.047 58.3009 256.895 61.3603 252.861 67.422C248.57 73.8268 248.813 82.1044 249.171 89.7816C250.916 127.248 252.666 164.723 254.42 202.209" fill="#263238"/>
<path id="hair-left" d="M363.335 17.7848C364.422 28.307 365.467 39.1294 362.606 49.2369C359.745 59.3445 351.977 68.9517 341.549 70.6816C336.6 71.5108 331.05 70.6816 326.987 73.5409C318.405 79.7455 325.428 94.3136 320.336 103.635C315.773 112.013 303.528 112.756 297.449 120.104C290.74 128.182 294.201 140.377 298.879 149.769C303.557 159.162 309.336 169.513 306.217 179.549C302.727 190.743 289.338 196.705 286.048 207.956C283.916 215.218 286.148 224.154 280.97 229.644C276.95 233.932 270.313 233.932 264.491 233.446C240.537 231.24 217.359 223.813 196.587 211.687C200.109 205.885 202.038 199.258 202.18 192.473L190.494 201.051L163.487 167.554C166.235 160.726 170.334 154.523 175.537 149.315C180.74 144.107 186.941 140.002 193.769 137.246C201.923 134 212.365 131.241 214.268 122.692C215.326 117.96 209.647 109.339 212.708 98.388C212.708 98.388 217.844 77.4438 229.974 71.5394C242.104 65.6349 240.416 62.0894 243.063 54.0262" fill="#263238"/>
<path id="Vector_41" d="M170.224 164.109C170.224 163.823 173.986 163.951 180.695 164.023C184.755 164.087 188.816 163.901 192.854 163.465C198.126 162.943 203.275 161.547 208.088 159.334C210.832 158.028 213.403 156.385 215.741 154.444C218.231 152.365 220.329 149.857 221.935 147.039C223.573 143.966 224.631 140.617 225.053 137.16C225.625 133.543 225.826 129.669 226.484 125.608C227.018 121.306 228.445 117.162 230.675 113.442C231.929 111.451 233.574 109.735 235.51 108.396C237.501 107.098 239.711 106.173 242.033 105.665C246.581 104.607 251.087 104.721 255.379 104.235C259.67 103.749 263.733 102.605 266.465 99.5603C269.175 96.3165 270.968 92.4072 271.657 88.2376C272.559 84.063 272.859 79.6597 273.717 75.2278C274.41 70.7221 276.182 66.4502 278.881 62.7756C280.282 61.0326 281.919 59.4929 283.745 58.2008C285.528 56.9649 287.448 55.9383 289.466 55.1413C297.305 51.9961 305.43 51.9675 312.525 52.7109C319.62 53.4543 326.129 54.6124 332.051 54.8554C334.842 55.008 337.641 54.9267 340.419 54.6124C342.861 54.3013 345.26 53.7162 347.571 52.8682C351.333 51.5714 354.755 49.446 357.585 46.6493C359.377 44.8805 360.789 42.7642 361.733 40.4303C362.391 38.8291 362.606 37.9141 362.763 37.9427C362.882 38.865 362.774 39.8022 362.448 40.6733C361.75 43.2596 360.451 45.645 358.657 47.6357C355.821 50.7918 352.284 53.24 348.33 54.7839C345.886 55.7956 343.332 56.5154 340.72 56.9284C337.813 57.3628 334.874 57.5398 331.937 57.4573C325.786 57.3716 319.191 56.3279 312.225 55.7704C308.667 55.4316 305.087 55.4077 301.525 55.6989C297.822 56.0268 294.188 56.8987 290.74 58.2865C287.204 59.681 284.093 61.9722 281.713 64.9344C279.396 68.1805 277.894 71.9368 277.336 75.8854C276.535 80.0171 276.278 84.4633 275.305 88.9953C274.497 93.8339 272.385 98.3611 269.197 102.091C267.45 103.997 265.279 105.466 262.86 106.38C260.591 107.204 258.226 107.732 255.822 107.952C251.202 108.453 246.81 108.367 242.948 109.282C241.004 109.639 239.141 110.352 237.455 111.383C235.911 112.443 234.593 113.799 233.579 115.372C231.596 118.67 230.31 122.338 229.802 126.152C229.187 129.969 228.93 133.857 228.272 137.689C227.739 141.513 226.492 145.204 224.595 148.568C222.758 151.669 220.374 154.41 217.558 156.66C214.989 158.699 212.173 160.405 209.175 161.735C204.051 163.922 198.587 165.209 193.025 165.538C188.901 165.83 184.762 165.83 180.638 165.538C173.814 164.952 170.138 164.409 170.224 164.109Z" fill="#E0E0E0"/>
<path id="Vector_42" d="M261.63 36.0556C262.088 36.2557 261.873 37.9141 260.829 40.3445C259.431 43.4621 257.527 46.3267 255.193 48.8223C252.898 51.3434 250.219 53.4858 247.254 55.1699C244.965 56.428 243.363 56.8283 243.091 56.3994C242.548 55.4844 247.454 51.7674 252.446 46.2918C257.439 40.8163 260.657 35.6124 261.63 36.0556Z" fill="#FD4F5C"/>
<path id="Vector_43" d="M443.34 511.455L451.022 590.714L209.59 590.628L256.237 496.529L443.34 511.455Z" fill="#FD4F5C"/>
<path id="Vector_44" d="M450.593 418.757L497.569 487.951C497.569 487.951 507.181 412.009 508.068 413.71C508.955 415.411 455.413 340.984 455.413 340.984L450.593 418.757Z" fill="#EB996E"/>
<path id="Vector_45" d="M256.723 250.459C254.849 250.459 194.985 274.763 188.147 286C181.31 297.237 224.08 508.024 224.08 508.024L443.326 512.527L445.5 411.737L461.836 276.965L371.174 246.428L359.044 235.963L334.483 278.666L267.008 235.448L256.723 250.459Z" fill="#FD4F5C"/>
<g id="Group" opacity="0.3">
<path id="Vector_46" opacity="0.3" d="M247.611 583.709C262.145 579.935 274.132 569.255 282.471 556.774C290.811 544.294 295.932 529.983 300.853 515.801C305.774 501.619 310.623 487.208 318.505 474.47C324.298 465.048 331.622 456.671 338.917 448.35C342.207 444.218 346.059 440.566 350.361 437.499C355.868 433.968 362.405 432.453 368.799 431.009L402.372 423.389C406.625 422.656 410.722 421.206 414.488 419.1C418.136 416.812 421.068 412.938 421.039 408.649C404.303 410.336 387.381 409.821 370.645 411.608C353.908 413.395 336.915 417.756 323.554 427.992C310.194 438.228 301.439 453.626 294.688 469.166C278.237 506.937 270.541 548.683 248.784 583.666" fill="black"/>
</g>
<path id="Vector_47" d="M188.148 286C188.148 286 169.952 297.923 165.26 335.88C161.641 364.087 154.489 443.933 154.489 443.933L241.003 436.784L188.148 286Z" fill="#FD4F5C"/>
<path id="Vector_48" d="M154.489 443.933C154.636 443.913 154.785 443.913 154.932 443.933L156.22 443.775L161.155 443.304L179.365 441.66L239.444 436.541L240.989 436.413L240.66 436.827C237.613 413.867 234.938 393.152 232.864 378.126L230.632 360.27C230.375 358.226 230.189 356.61 230.046 355.452C230.046 354.937 229.945 354.523 229.917 354.194C229.895 354.052 229.895 353.907 229.917 353.765C229.955 353.906 229.983 354.049 230.003 354.194C230.06 354.509 230.131 354.923 230.217 355.438C230.375 356.582 230.618 358.197 230.932 360.241C231.519 364.53 232.363 370.506 233.436 377.955C235.481 392.98 238.299 413.696 241.432 436.57V436.956H241.046L239.501 437.085L179.422 441.988L161.198 443.418L156.248 443.761H154.947L154.489 443.933Z" fill="#263238"/>
<path id="Vector_49" d="M333.839 278.108C333.352 278.022 332.873 277.893 332.409 277.722L328.461 276.464L314.328 271.732L314.7 271.632C312.683 275.02 310.408 278.78 308.077 282.826L307.905 283.098L307.619 282.955C304.157 281.282 300.467 279.409 296.676 277.394C287.143 272.311 277.88 266.737 268.925 260.695C265.478 258.379 262.76 256.406 260.886 255.063L258.755 253.461C258.497 253.286 258.257 253.085 258.04 252.861C258.326 252.983 258.595 253.142 258.841 253.333L261.058 254.762C262.975 256.063 265.735 257.95 269.211 260.195C276.149 264.713 285.876 270.731 297.034 276.65C300.81 278.666 304.501 280.539 307.948 282.226L307.476 282.369L314.171 271.232L314.314 271.017H314.542L328.589 275.992L332.48 277.422C332.95 277.615 333.405 277.845 333.839 278.108V278.108Z" fill="#263238"/>
<path id="Vector_50" d="M370.101 246.813C370.133 247.041 370.133 247.272 370.101 247.5C370.101 247.957 370.001 248.615 369.872 249.473C369.532 251.881 369.055 254.267 368.442 256.621C367.558 260.114 366.425 263.54 365.052 266.871C364.265 268.744 363.364 270.688 362.334 272.59C361.819 273.562 361.275 274.549 360.703 275.535C360.412 276.047 360.067 276.527 359.673 276.965C359.451 277.231 359.17 277.442 358.852 277.581C358.535 277.72 358.189 277.783 357.842 277.765C357.179 277.666 356.571 277.337 356.126 276.836C355.682 276.407 355.325 275.95 354.953 275.521L352.793 273.062L348.673 268.23C348.09 267.483 347.372 266.852 346.556 266.371C346.202 266.16 345.793 266.061 345.382 266.087C344.971 266.112 344.578 266.261 344.253 266.514C343.62 267.062 343.062 267.692 342.594 268.387L341.163 270.303L336.743 276.021L335.513 277.565C335.227 277.908 335.069 278.094 335.041 278.065C335.134 277.855 335.254 277.658 335.398 277.479L336.514 275.85L340.734 269.945C341.192 269.33 341.664 268.687 342.164 268.001C342.656 267.247 343.248 266.564 343.924 265.971C344.337 265.646 344.838 265.45 345.363 265.41C345.887 265.369 346.412 265.485 346.871 265.742C347.77 266.252 348.566 266.926 349.217 267.729L353.379 272.547L355.568 275.092C356.312 275.921 356.998 276.95 357.971 277.065C358.944 277.179 359.587 276.093 360.117 275.149C360.646 274.205 361.232 273.205 361.747 272.29C362.777 270.36 363.678 268.444 364.465 266.571C365.869 263.287 367.045 259.909 367.984 256.464C368.8 253.518 369.286 251.088 369.601 249.401C369.714 248.529 369.882 247.665 370.101 246.813V246.813Z" fill="#263238"/>
<path id="Vector_51" d="M410.197 477.887C410.297 478.072 391.3 488.695 367.798 501.619C344.296 514.543 325.128 524.893 325.027 524.707C324.927 524.522 343.909 513.899 367.44 500.975C390.971 488.051 410.097 477.715 410.197 477.887Z" fill="#263238"/>
<path id="Vector_52" d="M397.079 519.661C397.079 519.861 384.863 520.676 369.786 521.491C354.709 522.306 342.45 522.777 342.45 522.577C342.45 522.377 354.652 521.548 369.744 520.747C384.835 519.947 397.065 519.446 397.079 519.661Z" fill="#263238"/>
<path id="Vector_53" d="M452.223 429.036L439.936 416.412L452.266 351.864L464.597 395.182L452.223 429.036Z" fill="#FD4F5C"/>
<path id="Vector_54" d="M443.068 507.78C443.047 507.672 443.047 507.56 443.068 507.452C443.068 507.18 443.068 506.866 443.068 506.48C443.068 505.565 443.068 504.306 443.068 502.748C443.14 499.431 443.226 494.771 443.34 489.024C443.569 477.443 443.884 461.446 444.07 443.761C444.256 426.076 444.227 410.079 443.941 398.513C443.812 392.723 443.569 388.034 443.383 384.803C443.269 383.244 443.169 381.943 443.111 381.086C443.111 380.7 443.111 380.385 443.111 380.113C443.096 380.004 443.096 379.894 443.111 379.785C443.117 379.894 443.117 380.004 443.111 380.113L443.24 381.071C443.34 381.986 443.483 383.23 443.655 384.788C443.927 388.019 444.256 392.694 444.442 398.484C444.871 410.079 444.985 426.091 444.799 443.775C444.613 461.46 444.213 477.458 443.855 489.038C443.641 494.756 443.469 499.446 443.355 502.748C443.269 504.321 443.211 505.607 443.169 506.48C443.169 506.866 443.169 507.18 443.097 507.452C443.096 507.562 443.087 507.672 443.068 507.78V507.78Z" fill="#263238"/>
<path id="Vector_55" d="M388.983 264.484C388.983 264.484 383.104 268.501 382.889 269.716C382.746 270.588 383.805 271.689 385.478 271.146C387.373 270.284 389.212 269.305 390.986 268.215L388.983 264.484Z" fill="#E8505B"/>
<g id="Group_2" opacity="0.3">
<path id="Vector_56" opacity="0.3" d="M388.983 264.484C388.983 264.484 383.104 268.501 382.889 269.716C382.746 270.588 383.805 271.689 385.478 271.146C387.373 270.284 389.212 269.305 390.986 268.215L388.983 264.484Z" fill="black"/>
</g>
<g id="hand">
<path id="Vector_57" d="M401.771 242.239C400.479 241.79 399.089 241.696 397.748 241.968C396.407 242.24 395.163 242.866 394.147 243.783C390.743 246.971 391.172 250.588 392.23 253.99C392.691 255.827 393.831 257.42 395.42 258.451L409.467 251.86L401.771 242.239Z" fill="#EB996E"/>
<path id="Vector_58" d="M402.816 249.658L386.623 264.927L390.228 269.916L407.679 263.683L497.011 213.017C497.787 212.578 498.465 211.986 499.004 211.277C499.543 210.568 499.931 209.756 500.145 208.891C500.359 208.027 500.395 207.128 500.25 206.249C500.104 205.371 499.781 204.531 499.3 203.781V203.781C498.401 202.391 497.01 201.392 495.405 200.983C493.8 200.575 492.1 200.788 490.646 201.58L402.816 249.658Z" fill="#455A64"/>
<path id="Vector_59" d="M573.426 441.631C572.425 427.149 481.619 301.798 475.94 293.977L460.206 261.424L453.54 234.004C453.54 234.004 417.893 213.503 415.075 213.503C412.257 213.503 398.41 231.187 398.152 234.004C398.111 234.894 398.248 235.784 398.555 236.621C398.862 237.459 399.333 238.226 399.94 238.879L401.743 256.821C400.57 259.193 400.385 261.933 401.228 264.441C402.758 268.087 408.924 268.087 408.924 268.087L406.635 275.921C406.635 275.921 407.15 284.57 408.695 286.1C409.281 286.701 412.328 287.129 415.704 286.5C418.651 285.957 419.48 281.654 419.337 279.595C420.296 281.125 423.5 279.595 423.5 279.595C423.815 283.241 427.605 285.957 427.605 285.957C427.605 285.957 433.055 307.888 433.814 310.704C434.572 313.521 439.535 320.712 446.688 323.256C447.331 323.5 447.904 323.743 448.461 324.014C453.711 343.672 489.945 478.93 497.669 488.023C505.923 497.816 528.295 503.949 548.407 502.92C568.519 501.89 574.456 456.585 573.426 441.631Z" fill="#FFBE9D"/>
<path id="Vector_60" d="M434.257 230.773C432.585 231.012 430.897 231.122 429.208 231.102C426.075 231.202 421.755 231.288 416.977 231.302C414.588 231.302 412.314 231.302 410.24 231.302C409.196 231.302 408.223 231.302 407.293 231.187C406.486 231.155 405.685 231.343 404.976 231.731C403.904 232.302 402.913 233.014 402.029 233.847C401.721 234.18 401.381 234.482 401.013 234.747C401.221 234.337 401.497 233.965 401.829 233.646C402.649 232.703 403.615 231.897 404.69 231.259C405.473 230.797 406.369 230.559 407.279 230.573C408.232 230.573 409.186 230.573 410.14 230.573H429.136C430.846 230.512 432.557 230.579 434.257 230.773Z" fill="#EB996E"/>
<path id="Vector_61" d="M423.543 230.773C422.821 230.664 422.142 230.357 421.583 229.886C420.166 228.902 418.883 227.74 417.764 226.427L417.349 225.955L417.979 225.555C418.171 226.066 418.171 226.63 417.979 227.142C417.827 227.565 417.615 227.965 417.349 228.328C416.93 228.897 416.45 229.42 415.919 229.886C415.003 230.658 414.345 231.002 414.288 230.93C414.231 230.859 414.774 230.373 415.575 229.5C416.051 229.02 416.478 228.493 416.849 227.928C417.09 227.646 417.26 227.311 417.344 226.95C417.429 226.59 417.426 226.214 417.335 225.855L416.291 223.525L417.95 225.469L418.351 225.926C419.445 227.193 420.641 228.37 421.927 229.443C422.494 229.851 423.034 230.295 423.543 230.773V230.773Z" fill="#EB996E"/>
<path id="Vector_62" d="M431.697 246.771C430.228 246.922 428.752 246.979 427.276 246.942C424.544 247.028 420.782 247.214 416.634 247.571C413.114 247.762 409.675 248.702 406.549 250.33C404.175 251.617 402.902 252.746 402.816 252.646C402.73 252.546 403.059 252.289 403.645 251.774C404.471 251.065 405.356 250.429 406.292 249.873C409.434 248.065 412.957 247.022 416.577 246.828C420.134 246.505 423.705 246.371 427.276 246.427C428.758 246.381 430.24 246.496 431.697 246.771V246.771Z" fill="#EB996E"/>
<path id="Vector_63" d="M414.831 247.328C414.009 247.406 413.18 247.32 412.392 247.075C411.603 246.829 410.872 246.429 410.24 245.899C409.558 245.429 408.98 244.825 408.54 244.125C408.1 243.424 407.807 242.641 407.679 241.824C408.572 243.08 409.583 244.248 410.697 245.312C412.011 246.109 413.395 246.783 414.831 247.328Z" fill="#EB996E"/>
<path id="Vector_64" d="M431.339 257.336C430.457 258.027 429.452 258.546 428.378 258.865C425.837 259.707 423.229 260.333 420.582 260.738C417.977 261.149 415.419 261.815 412.943 262.725C411.07 263.483 410.083 264.155 409.954 264.155C410.74 263.349 411.685 262.717 412.729 262.297C415.189 261.214 417.782 260.459 420.439 260.052C423.056 259.642 425.648 259.094 428.206 258.408C430.152 257.793 431.282 257.236 431.339 257.336Z" fill="#EB996E"/>
<path id="Vector_65" d="M417.006 271.875C417.006 271.875 417.764 272.061 418.694 272.862C419.931 273.938 420.709 275.447 420.868 277.079C420.991 278.003 420.811 278.941 420.353 279.753C419.986 280.395 419.5 280.962 418.923 281.425C417.921 282.226 417.092 282.226 417.092 282.154C417.092 282.083 417.778 281.84 418.522 281.039C418.97 280.558 419.346 280.014 419.638 279.424C419.991 278.727 420.121 277.938 420.01 277.165C419.859 275.695 419.231 274.314 418.222 273.233C417.549 272.39 416.949 271.975 417.006 271.875Z" fill="#EB996E"/>
<path id="Vector_66" d="M427.706 270.746C427.791 270.746 427.62 271.375 427.219 272.29C426.683 273.52 425.835 274.589 424.759 275.392C424.135 275.839 423.405 276.115 422.642 276.193C422.016 276.258 421.383 276.154 420.811 275.892C419.838 275.421 419.581 274.734 419.652 274.706C419.724 274.677 420.138 275.135 421.083 275.406C421.649 275.564 422.244 275.589 422.822 275.48C423.4 275.371 423.945 275.131 424.416 274.777C425.392 274.032 426.209 273.099 426.819 272.032C427.319 271.218 427.706 270.703 427.706 270.746Z" fill="#EB996E"/>
<path id="Vector_67" d="M430.952 281.64C430.952 281.725 430.352 281.94 429.307 281.84C427.941 281.659 426.681 281.007 425.746 279.995C424.832 278.96 424.324 277.63 424.315 276.25C424.315 275.206 424.601 274.62 424.687 274.649C424.773 274.677 424.687 275.278 424.844 276.221C424.989 277.429 425.487 278.568 426.275 279.495C427.104 280.397 428.186 281.03 429.379 281.311C430.323 281.64 430.938 281.64 430.952 281.64Z" fill="#EB996E"/>
<path id="Vector_68" d="M491.933 217.92C490.024 216.254 488.417 214.271 487.184 212.059C485.708 209.999 484.596 207.702 483.894 205.268C484.08 205.197 485.582 208.127 487.813 211.659C490.045 215.19 492.076 217.792 491.933 217.92Z" fill="#263238"/>
<path id="Vector_69" d="M493.507 215.619C485.878 220.051 478.12 224.282 470.233 228.314L470.104 228.4C470.039 228.518 470 228.649 469.991 228.783C469.981 228.918 470.002 229.053 470.051 229.179C470.101 229.305 470.177 229.418 470.275 229.511C470.374 229.603 470.491 229.673 470.619 229.715C471.153 229.86 471.722 229.809 472.222 229.572C473.533 229.039 474.801 228.403 476.012 227.671L491.533 218.835C492.162 218.52 492.729 218.094 493.206 217.577C493.436 217.312 493.586 216.988 493.639 216.641C493.693 216.295 493.647 215.94 493.507 215.619V215.619Z" fill="#263238"/>
</g>
<path id="Vector_70" d="M262.86 447.106L237.727 485.864L236.382 437.099L166.204 442.96C166.076 444.862 171.239 502.248 179.078 551.756C182.483 573.344 204.497 589.713 226.369 589.713C234.819 589.723 243.095 587.319 250.224 582.785C257.353 578.251 263.037 571.776 266.608 564.123L309.621 456.513L262.86 447.106Z" fill="#FFBE9D"/>
<path id="Vector_71" d="M314.857 294.392C314.743 293.749 316.988 284.685 316.988 284.685C316.988 284.685 426.003 279.252 426.246 279.395L432.812 283.341L314.857 294.392Z" fill="white"/>
<path id="Vector_72" d="M314.857 294.392L315.472 294.306L317.274 294.12L324.141 293.42L349.359 290.947L432.783 282.969L432.626 283.655L428.978 281.468L426.947 280.253C426.618 280.081 426.275 279.753 425.946 279.724C425.614 279.769 425.28 279.793 424.945 279.795L420.281 280.01L411.084 280.424L393.36 281.268L361.39 282.798L317.046 284.842L317.189 284.728C316.43 287.816 315.844 290.217 315.429 291.876C315.014 293.534 314.914 294.378 314.914 294.378C314.915 293.522 315.035 292.67 315.272 291.847C315.615 290.189 316.159 287.759 316.902 284.699V284.599H317.003L361.347 282.24L393.374 280.567L411.084 279.695L420.281 279.266L424.959 279.052C425.402 279.052 425.874 279.052 426.389 279.052C426.761 279.184 427.112 279.367 427.434 279.595L429.465 280.81L433.112 283.012L434.085 283.598L432.955 283.698L349.231 291.39L324.083 293.634L317.289 294.22L315.529 294.349L314.857 294.392Z" fill="#263238"/>
<path id="Vector_73" d="M315.429 296.179L314.843 294.392L313.398 285.314L211.206 264.484L201.265 271.961L216.241 404.532L320.092 430.38L315.429 296.179Z" fill="white"/>
<path id="Vector_74" d="M315.429 296.179V296.808C315.429 297.237 315.458 297.852 315.515 298.652C315.587 300.311 315.687 302.727 315.816 305.801C316.059 312.148 316.416 321.412 316.86 333.164C317.718 356.724 318.934 390.35 320.379 430.294V430.737L319.95 430.637L216.099 404.903L215.841 404.832V404.575C215.484 401.444 215.112 398.084 214.725 394.696C209.676 349.905 204.955 307.888 200.907 271.989V271.818L201.05 271.704L211.063 264.227L211.178 264.141H211.321L313.47 285.171V285.242C314.199 290.16 314.643 293.105 314.9 294.349C315.401 295.907 315.458 296.136 315.458 296.136C315.458 296.136 315.358 295.922 314.857 294.363C314.643 293.12 314.156 290.175 313.327 285.285L313.412 285.371L211.178 264.741H211.421C208.203 267.186 204.898 269.659 201.494 272.233L201.608 271.932C205.685 307.831 210.448 349.848 215.526 394.624C215.898 398.012 216.285 401.386 216.642 404.503L216.356 404.189L320.193 430.079L319.792 430.408C318.448 390.378 317.332 356.853 316.545 333.293C316.173 321.541 315.887 312.263 315.687 305.915C315.601 302.77 315.529 300.339 315.487 298.681C315.487 297.88 315.487 297.251 315.487 296.822C315.487 296.393 315.429 296.179 315.429 296.179Z" fill="#263238"/>
<path id="Vector_75" d="M197.403 270.86L207.015 404.803L320.121 428.235L434.157 407.748L435.473 282.869L321.852 289.317C321.852 289.317 321.165 294.392 312.826 294.22L307.233 292.305L203.124 271.975L197.403 270.86Z" fill="#455A64"/>
<path id="Vector_76" d="M324.713 434.197C324.513 434.197 323.683 401.772 322.868 361.771C322.052 321.77 321.552 289.317 321.752 289.317C321.952 289.317 322.796 321.727 323.611 361.757C324.427 401.787 324.985 434.197 324.713 434.197Z" fill="#263238"/>
<path id="Vector_77" d="M310.237 430.322C310.213 430.209 310.213 430.092 310.237 429.979C310.237 429.693 310.237 429.35 310.151 428.936C310.094 427.983 310.008 426.639 309.893 424.904C309.679 421.416 309.45 416.326 309.193 410.122C308.692 397.641 308.206 380.371 307.762 361.314C307.319 342.256 307.204 324.972 307.118 312.477C307.118 306.272 307.118 301.226 307.118 297.666C307.118 295.965 307.118 294.621 307.118 293.649V292.605C307.074 292.594 307.035 292.568 307.009 292.531C306.983 292.493 306.971 292.448 306.977 292.403C306.982 292.357 307.004 292.316 307.038 292.285C307.072 292.255 307.116 292.238 307.161 292.238C307.207 292.238 307.251 292.255 307.285 292.285C307.319 292.316 307.341 292.357 307.346 292.403C307.351 292.448 307.34 292.493 307.314 292.531C307.288 292.568 307.249 292.594 307.204 292.605V293.649C307.204 294.621 307.204 295.965 307.304 297.666C307.376 301.226 307.476 306.244 307.59 312.463C307.819 325.015 308.12 342.256 308.449 361.299C308.778 380.342 309.221 397.612 309.593 410.107C309.793 416.298 309.951 421.344 310.051 424.904C310.051 426.591 310.137 427.935 310.165 428.921C310.165 429.35 310.165 429.693 310.165 429.965C310.196 430.083 310.22 430.202 310.237 430.322V430.322Z" fill="#263238"/>
<path id="Vector_78" d="M296.104 473.741L295.66 473.927L296.104 473.741Z" fill="#FFBE9D"/>
<path id="Vector_79" d="M347.6 396.955C353.136 391.493 358.557 385.932 359.802 383.916C362.534 379.484 358.1 376.411 355.024 375.038C351.949 373.666 311.667 408.149 311.667 408.149C311.667 408.149 345.469 378.126 347.514 376.067C349.56 374.009 350.933 371.292 348.873 365.831C346.813 360.37 340.291 362.414 337.959 362.758C335.627 363.101 297.32 395.182 297.32 395.182C297.32 395.182 319.52 373.737 321.637 371.979C323.755 370.22 324.37 367.189 323.683 363.101C322.996 359.012 318.562 359.341 315.487 359.341C312.411 359.341 264.376 402.001 264.376 402.001L266.665 424.518L258.526 459.015L296.376 473.655C302.856 470.924 315.143 454.955 317.532 451.824C319.921 448.693 333.582 425.547 333.582 425.547C339.046 422.474 346.899 410.193 349.975 406.776C353.05 403.359 352.02 401.658 350.318 398.927C349.403 397.498 340.477 404.646 332.423 411.48L334.268 409.85C334.268 409.85 340.977 403.474 347.6 396.955Z" fill="#FFBE9D"/>
<path id="Vector_80" d="M278.938 410.922C278.342 411.455 277.6 411.798 276.807 411.909C274.913 412.331 272.931 412.099 271.185 411.251C269.456 410.365 268.091 408.904 267.323 407.119C266.938 406.422 266.774 405.625 266.851 404.832C266.966 404.832 267.137 405.675 267.795 406.891C268.625 408.477 269.93 409.763 271.528 410.571C273.126 411.379 274.937 411.666 276.707 411.394C278.109 411.194 278.938 410.808 278.938 410.922Z" fill="#EB996E"/>
<path id="Vector_81" d="M294.559 423.775C293.917 424.024 293.215 424.079 292.542 423.932C290.879 423.727 289.325 422.996 288.107 421.845C286.914 420.694 286.121 419.191 285.847 417.556C285.647 416.298 285.847 415.526 285.933 415.54C286.11 416.166 286.254 416.8 286.362 417.441C286.742 418.928 287.529 420.28 288.636 421.344C289.744 422.407 291.126 423.14 292.628 423.46C293.279 423.515 293.924 423.621 294.559 423.775V423.775Z" fill="#EB996E"/>
<path id="Vector_82" d="M311.839 436.713C311.042 436.84 310.226 436.766 309.464 436.498C307.573 435.979 305.874 434.921 304.574 433.454C303.273 431.987 302.428 430.174 302.14 428.235C301.927 427.458 301.927 426.639 302.14 425.862C302.338 426.61 302.491 427.369 302.598 428.135C303.004 429.924 303.856 431.581 305.073 432.953C306.291 434.325 307.836 435.367 309.564 435.984C310.335 436.185 311.095 436.428 311.839 436.713V436.713Z" fill="#EB996E"/>
<path id="Vector_83" d="M243.177 478.144C243.349 478.258 235.381 490.668 225.368 505.85C215.355 521.033 207.158 533.257 206.987 533.157C206.815 533.057 214.783 520.633 224.796 505.45C234.809 490.267 243.063 478.03 243.177 478.144Z" fill="#EB996E"/>
<path id="Vector_84" d="M411.813 339.554C411.813 339.755 398.467 341.885 381.96 344.301C365.452 346.717 352.02 348.504 351.992 348.304C351.963 348.104 365.324 345.973 381.845 343.557C398.367 341.141 411.785 339.354 411.813 339.554Z" fill="#263238"/>
<path id="Vector_85" d="M412.843 345.302C412.843 345.502 400.842 347.575 385.979 349.919C371.117 352.264 359.044 353.994 359.044 353.794C359.044 353.594 371.045 351.521 385.922 349.176C400.799 346.831 412.814 345.101 412.843 345.302Z" fill="#263238"/>
</g>
<g id="Desk">
<path id="Vector_86" d="M619 590.628C619 590.828 480.418 591 309.507 591C138.597 591 0 590.828 0 590.628C0 590.428 138.554 590.257 309.507 590.257C480.461 590.257 619 590.442 619 590.628Z" fill="#263238"/>
</g>
</g>
</g>
<defs>
<clipPath id="clip0_21_2">
<rect width="619" height="591" fill="white"/>
</clipPath>
</defs>
</svg>
